<svg xmlns="http://www.w3.org/2000/svg" viewBox="0 0 160.32 209.97"><path fill="#fdcc9b" d="M69.49 159.7h29.4v32.92h-29.4z"/><path d="M69.49 163.58a49.38 49.38 0 0029.4 6v-9.88h-29.4z" fill="#fcbc85"/><ellipse cx="27.11" cy="108.65" rx="14.34" ry="16.36" fill="#fcbc85"/><ellipse cx="141.27" cy="108.65" rx="14.34" ry="16.36" fill="#fcbc85"/><path d="M141.22 77.39c0-24.1-17.64-41.74-57-41.74s-57 17.64-57 41.74-4.11 87.6 57 87.6 57-63.49 57-87.6z" fill="#fdcc9b"/><ellipse cx="56.41" cy="104.73" rx="6.17" ry="6.76" fill="#3b2519"/><circle cx="53.72" cy="101.75" r="1.85" fill="#fff"/><path d="M46.54 90.15c2.92 1.12 7.61-3.79 18.33.48C66.83 91.41 68 84 56.5 84c-9.96 0-11.72 5.48-9.96 6.15z" fill="#51362a"/><ellipse cx="112.73" cy="104.73" rx="6.17" ry="6.76" fill="#3b2519"/><circle cx="110.04" cy="101.75" r="1.85" fill="#fff"/><path d="M121.84 90.15c-2.92 1.12-7.6-3.79-18.33.48-2 .78-3.13-6.67 8.37-6.67 9.96.04 11.72 5.52 9.96 6.19z" fill="#51362a"/><path d="M84.19 128.51c-6.1 0-9.77-4.55-9.77-2.35s1.76 6.39 9.77 6.39 9.81-4.19 9.81-6.39-3.71 2.35-9.81 2.35zm0 20.27c-2.11 0-3.38-1.57-3.38-.81s.61 2.21 3.38 2.21 3.38-1.45 3.38-2.21-1.27.81-3.38.81z" fill="#fcbc85"/><path d="M84.19 143.17c-9.67 0-15.49-3.94-15.49-2.94s2.79 4.92 15.49 4.92 15.49-3.93 15.49-4.92-5.82 2.94-15.49 2.94z" fill="#f7945e"/><circle cx="48.48" cy="126.34" r="8.38" fill="#f9aa8d"/><circle cx="120.93" cy="126.34" r="8.38" fill="#f9aa8d"/><path d="M84.19 172.93c-33.8 0-64.37 22-64.37 37h128.74c0-14.93-30.56-37-64.37-37z" fill="#f7982c"/><path d="M84 172.93a95.27 95.27 0 00-21.93 2.72A29.45 29.45 0 0084 185.86c12.9 0 21.47-8.69 22.71-10A96.12 96.12 0 0084 172.93z" fill="#209fb3"/><path d="M69.49 174.21s4.3 5.33 14.7 5.33 14.7-5.33 14.7-5.33-15.25-5.55-29.4 0z" fill="#fdcc9b"/><path d="M24.8 148.18c-3.53-15.47-8.72-38.69 4.95-46.59 18.18-10.51 23.81-39.13 23.81-39.13s33.51 11.91 54.67 12.35 45.87 37.51 35.28 73.37c0 0 27.62-28.4 12.05-89.25S69.43-19.55 32.39 24.54c-59.96 18.08-20.82 118.61-7.59 123.64z" fill="#51362a"/></svg>