<svg xmlns="http://www.w3.org/2000/svg" viewBox="0 0 331.74 305.68"><path d="M331.74.21c-241.6-3.43-311.51 37-311.51 37L4.81 241.82h308.68zM0 305.68h308.66l4.45-58.9H4.44L0 305.68z" fill="#581866"/><path d="M91.15 204.91h13.18l-.25 3.66h-8.59l-.47 6.68h8.12l-.25 3.67h-8.12l-.52 7.39h9l-.26 3.67H89.4zm7.31-6.3h4.16l-4 5.17h-2.8zm14.89 15.92a25.13 25.13 0 00.07-3.05h4.17c0 .94 0 1.91-.06 2.84h.08a5.88 5.88 0 015.14-3.12c4.2 0 5.24 3.12 5 6.86l-.84 11.92h-4.45l.77-11.1c.2-2.84-.43-4-2.26-4-2.34 0-3.3 2-3.47 4.34l-.75 10.78h-4.46zm36.77 14.55a14.54 14.54 0 01-5.62 1.18c-6 0-8.25-4.27-7.9-9.26.39-5.53 3.6-9.8 8.3-9.8 4 0 7.24 2.33 6.71 9.87l-.06.86h-10.7c-.22 3.16.9 5.07 4.35 5.07a7.8 7.8 0 004.95-1.44zm-2.68-10c.23-3.27-.74-4.92-2.75-4.92-2.33 0-3.47 2.48-3.64 4.92zm13.78-4.55a23.24 23.24 0 00.07-3.05h4c0 1.12 0 2.27-.1 3.38h.08c.64-1.44 2.19-3.66 5-3.66a5.45 5.45 0 01.75.1l-.3 4.17a4.31 4.31 0 00-1.24-.18c-1.83 0-3.92 1.11-4.16 4.56l-.71 10.13h-4.45zm17.01 18.32a11.16 11.16 0 005.35 1.58c4.2 0 5.09-2.91 5.29-5.82l.13-1.76h-.04a5.51 5.51 0 01-5.1 3.13c-2.59 0-6.34-1.73-5.82-9.2.35-5.1 2.5-9.58 7.35-9.58 2.69 0 3.84 1.54 4.66 3.16h.15c.06-1 .24-1.91.34-2.88h4c-.14 1-.27 1.94-.34 2.91l-1 13.65c-.4 5.78-2.45 9.91-9.24 9.91a18.08 18.08 0 01-6.28-1.15zm6.86-6.14c2.8 0 4.06-2 4.35-6.21.27-3.88-1.06-6-3.18-5.93-2.34 0-3.38 2.19-3.65 6-.3 4.31.97 6.14 2.48 6.14zm19.34-15.23h4.46l-1.3 18.5h-4.45zm.53-7.87h4.6l-.31 4.38h-4.6zm26.29 25.47a14.48 14.48 0 01-5.61 1.18c-6 0-8.25-4.27-7.9-9.26.38-5.53 3.59-9.8 8.3-9.8 4 0 7.23 2.33 6.71 9.87l-.07.86h-10.72c-.22 3.16.9 5.07 4.35 5.07a7.8 7.8 0 004.95-1.44zm-2.68-10c.23-3.27-.73-4.92-2.74-4.92-2.34 0-3.48 2.48-3.65 4.92zM26.49 281.27h-5.53l-1.5 4h-4.84l7.56-18.8h5.57l4.67 18.8h-5.23zm-1.82-11h-.05l-2.54 7.37h3.72zm11.29-3.81h11.09l-.26 3.72h-6.14l-.27 3.82h5.88l-.26 3.72h-5.88l-.52 7.54h-5zm17.85 5.77h-.11l-.91 13h-4.42l1.32-18.8h5.87l4 13h.06l.9-13h4.44l-1.31 18.8h-5.93zm22.65-6.09c4.09 0 8.15 2.75 7.67 9.72s-4.94 9.72-9 9.72-8.16-2.75-7.67-9.72 4.9-9.72 9-9.72zm-1.16 15.83c2.13 0 3.32-2.39 3.58-6.11s-.59-6.11-2.72-6.11-3.35 2.45-3.61 6.11.62 6.11 2.75 6.11zm19.24-2.04c-.36-1.81-1.18-2-2-2h-.27l-.52 7.35h-5.06l1.32-18.8h7.51c3.8 0 5.84 1.59 5.6 5.07a4.67 4.67 0 01-3.91 4.3v.09c1.05.35 1.72.86 2.29 3.47l1.29 5.87h-5.23zm-.74-5.63a2.21 2.21 0 002.21-2 1.84 1.84 0 00-2-2.21h-1.4l-.29 4.23zm30.61 10.55a16.55 16.55 0 01-4.68.73c-5.47 0-9.15-3.26-8.69-9.85.39-5.55 3.85-9.59 10-9.59a11.22 11.22 0 014.49.86l-.56 4.15a7.34 7.34 0 00-3.59-1.08c-3.23 0-4.88 2.1-5.14 5.76-.23 3.24 1.38 5.71 4.56 5.71a7 7 0 003.68-1zm4.22-18.39h11.53l-.26 3.72h-6.57l-.25 3.61h6.24l-.26 3.71h-6.24l-.29 4h6.92l-.26 3.72h-11.87zm21.39 13.47c-.36-1.81-1.18-2-2-2h-.27l-.51 7.35h-5.07l1.32-18.8H151c3.8 0 5.84 1.59 5.6 5.07a4.66 4.66 0 01-3.91 4.3v.09c1.05.35 1.71.86 2.28 3.47l1.29 5.87h-5.22zm-.74-5.63a2.22 2.22 0 002.22-2 1.84 1.84 0 00-2-2.21h-1.41l-.29 4.23zm13.56-4.01h-4l.27-3.83h13.14l-.27 3.83h-4l-1 15h-5.07zm11.87-3.83h5.07l-1.32 18.8h-5.06zm8.87 0h11.09l-.26 3.72h-6.14L188 274h5.88l-.26 3.72h-5.87l-.53 7.54h-5zm13.87 0h5.06l-1.31 18.8h-5.07zm21.01 18.39a16.5 16.5 0 01-4.68.73c-5.47 0-9.15-3.26-8.68-9.85.38-5.55 3.84-9.59 10-9.59a11.22 11.22 0 014.49.86l-.56 4.15a7.34 7.34 0 00-3.58-1.08c-3.24 0-4.89 2.1-5.15 5.76-.22 3.24 1.38 5.71 4.56 5.71a7 7 0 003.68-1zm13.15-3.58h-5.52l-1.49 4h-4.85l7.57-18.8h5.57l4.67 18.8h-5.23zm-1.81-11h-.06l-2.53 7.37h3.75zm12.74.02h-4l.27-3.83h13.15l-.27 3.83h-4l-1 15h-5.07zm11.88-3.83h5.06l-1.31 18.8h-5.07zm16.66-.32c4.1 0 8.16 2.75 7.67 9.72s-4.93 9.72-9 9.72-8.15-2.75-7.67-9.72 4.88-9.72 9-9.72zm-1.12 15.83c2.13 0 3.32-2.39 3.58-6.11s-.6-6.11-2.73-6.11-3.34 2.45-3.6 6.11.58 6.11 2.75 6.11zm16.7-9.74h-.11l-.91 13h-4.42l1.32-18.8h5.87l4 13 .91-13h4.42l-1.32 18.8h-5.92zM91.57 52.86c-5.85-2.2-13.46-3.31-29.21-3.27H48.78c.32 2.72 1.26 5.74 4.89 7.31h8.46c9.81 0 14.3 1.27 15.86 1.78 3.59 1.17 5.26 3.28 5 6.49l-.15 1.8c-19.29 4.63-36.39 10-45.16 15.5-5.32 2.83-7.47 6.66-8 11.42-.59 5.66 1.9 10.5 9.44 13.27 6.94 2.64 15.46 3.26 27.59 3.26h10.18c3.94-.17 8.56-.66 11.76-1.81 8-2.78 9.69-8.94 10.16-14.44l2.41-31.2c-.59-4.53-3.69-7.86-9.65-10.11zm-11.61 50.12H63.51a42 42 0 01-10.76-1.66c-3.21-1-4.85-2.87-5-5.56a12 12 0 012.08-7.87c3.27-4.19 12.76-7.32 12.76-7.32a144.43 144.43 0 0119.53-5.46zm136.22-48.72a35 35 0 00-8.45-1.87c-22.15-3-46.13.45-69.53 4.3l.9-11.16c.28-3.22.86-5.33 4.63-6.5s9.13-1.77 16-1.77h15.7c3.59-1.58 4.43-4.6 4.66-7.33h-20.83c-12.13 0-19.3.63-26.68 3.26-8 2.78-11.23 7.54-11.7 13l-1.1 13.73c-2.51.46-5.57.92-8.12 1.55-3.08 2.51-3.48 5.49-3.19 8.68h.05c3.46-.69 7.33-1.37 10.65-2l-3.12 41.46h18.15l3.36-44.48c14.66-2.81 45.4-8.29 62-5.8a24.14 24.14 0 013 .78c3.58 1.17 5.25 3.28 5 6.49l-.17.4c-19.3 4.63-36.39 10-45.17 15.5-5.31 2.83-7.47 6.66-8 11.42-.6 5.66 1.91 10.5 9.45 13.27 6.93 2.64 15.45 3.26 27.59 3.26h10.17c3.95-.17 8.56-.66 11.77-1.81 8-2.78 9.69-8.94 10.15-14.44l2.44-29.81c-.54-4.56-3.65-7.89-9.61-10.13zm-11.66 48.72h-16.41a41.94 41.94 0 01-10.76-1.66c-3.22-1-4.86-2.87-5-5.56a12.13 12.13 0 012.08-7.87c3.28-4.19 12.77-7.32 12.77-7.32a144.26 144.26 0 0119.52-5.46zm90.33-35.86l-2.35 28c-.27 3.23-2.37 5.37-6.18 6.55a52.36 52.36 0 01-14 1.75c-5.89-.1-10.46-.7-13.68-1.75-3.61-1.18-5.22-3.32-4.94-6.55l2.36-28c.29-3.23 2.37-5.38 6.17-6.56a53.12 53.12 0 0114-1.75c5.92.12 10.5.7 13.71 1.75 3.58 1.18 5.19 3.33 4.91 6.56zm8.75-12.41c-6.57-2.49-14.57-3.18-25.65-3.26h-2.16c-11.12.06-19.27.76-26.27 3.26-8.08 2.79-11.34 7.58-11.8 13.09l-2.26 26.59c-.48 5.54 1.88 10.32 9.47 13.1 5 1.92 10.87 2.77 18.27 3.1-.05.74 0 .07-.07.82-.48 6.44 6.31 13 17 13h19.92c6.94 0 8.71-7 8.71-7h-15.8c-13.14.1-11.63-6.85-11.63-6.85 7-.36 12.61-1.23 17.67-3.05 8.05-2.78 11.47-7.56 11.92-13.1L313 67.82c.5-5.53-1.81-10.32-9.4-13.11zM22.79 186.73h281.19l4.13-55.13H26.88l-4.09 55.13z" fill="#fff"/><path d="M40.48 143.1h8.54l-2.24 32h-8.54zm16.99 24.14a17.91 17.91 0 008.66 2.11c2.71 0 5.32-.55 5.5-3.12.41-6-15-2.21-14.18-13.86.54-7.71 8.22-9.83 14.64-9.83a26.16 26.16 0 018.18 1.2l-1 6.61a16.45 16.45 0 00-7-1.47c-2.15 0-5.75.18-5.94 3-.36 5.19 15 1.7 14.21 13.26-.58 8.31-7.71 10.56-14.82 10.56a32.54 32.54 0 01-9.45-1.38zm48.21-24.7c10.55 0 15.62 6.29 14.9 16.57s-6.76 16.57-17.22 16.57-15.61-6.38-14.9-16.57 6.67-16.57 17.22-16.57zm-1.87 26.81c5.18 0 7.59-5 8-10.24.39-5.55-1.35-10.23-6.53-10.23s-7.58 4.68-8 10.23c-.38 5.28 1.34 10.24 6.53 10.24zm44.74-26.25h20.87l-.4 5.78h-13.54l-.37 5.32c1.2-.09 2-.18 2.54-.18 6.51 0 12.05 2.84 11.56 9.91-.63 8.95-7.75 11.75-14.91 11.75a33.92 33.92 0 01-8.5-1.15l.62-6.93a16.78 16.78 0 007.68 1.75c3.12 0 6.54-1.06 6.83-5.14.25-3.58-3.39-4.68-6.79-4.68a28.08 28.08 0 00-7 .78zm28.57 16.01c.58-8.3 3-16.57 13.59-16.57s11.86 8.27 11.25 16.57-3 16.57-13.6 16.57-11.82-8.26-11.24-16.57zm16.61 0c.35-5.09.43-10.78-3.43-10.78s-4.57 5.69-4.92 10.78-.44 10.79 3.42 10.79 4.57-5.69 4.93-10.79zm15.14 0c.58-8.3 3-16.57 13.59-16.57s11.86 8.27 11.28 16.57-3 16.57-13.59 16.57-11.86-8.26-11.28-16.57zm16.61 0c.36-5.09.43-10.78-3.42-10.78s-4.57 5.69-4.93 10.78-.43 10.79 3.42 10.79 4.58-5.69 4.93-10.79zm15.15 0c.58-8.3 3-16.57 13.59-16.57s11.86 8.27 11.27 16.57-3 16.57-13.59 16.57-11.86-8.26-11.27-16.57zm16.61 0c.35-5.09.43-10.78-3.43-10.78s-4.57 5.69-4.93 10.78-.43 10.79 3.43 10.79 4.57-5.69 4.93-10.79zm26.91-7.5l-6.36 4.32-3.41-5.79 11.37-7.06h7.53l-2.24 32h-8.54z" fill="#581866"/><path fill="#fff" d="M4.81 241.81l-.37 4.97h308.67l.38-4.97H4.81z"/></svg>