<svg xmlns="http://www.w3.org/2000/svg" viewBox="0 0 512 512"><circle cx="256" cy="256" r="256" fill="#f7982c"/><path d="M471.2 127.8v266.9C425.7 465.3 346.3 512 256 512S86.3 465.3 40.8 394.6V22.8C40.8 10.2 51 0 63.6 0h279.9l127.7 127.8z" fill="#ededed"/><path d="M346.1 115.6s9.4 43.2 125.1 12.1L442 98.5l-95.9 17.1z" fill="#c2c2c2"/><path d="M343.5 105V0l127.8 127.8h-105c-12.6 0-22.8-10.2-22.8-22.8z" fill="#f7f7f7"/><path d="M331.1 114.7l-12.7-.8c-1.7-.1-3.1-1.3-3.5-2.9-1.4-5.4-3.6-10.6-6.3-15.3-.8-1.4-.7-3.3.4-4.5l8.4-9.6c1.4-1.6 1.3-3.9-.2-5.4l-4-4-7-7c-1.5-1.5-3.8-1.5-5.4-.2l-9.5 8.4c-1.3 1.1-3.1 1.3-4.6.4-2.3-1.3-4.7-2.5-7.2-3.6-2.6-1.1-5.3-2-8.1-2.8-1-.3-1.8-.9-2.3-1.6-.4-.6-.6-1.2-.6-1.9l-.8-12.7c-.1-2.1-1.8-3.7-3.9-3.7h-15.5c-2.1 0-3.8 1.6-3.9 3.7l-.3 4.4-.5 8.3c-.1 1.7-1.3 3.1-2.9 3.5-5.4 1.4-10.6 3.6-15.3 6.3-1.4.9-3.3.7-4.6-.4l-9.6-8.4c-1.6-1.4-3.9-1.3-5.4.2l-7.9 7.9-3.1 3.1c-1.5 1.5-1.5 3.8-.2 5.4l8.4 9.6c1.1 1.3 1.3 3.1.4 4.6-2.8 4.7-4.9 9.9-6.3 15.3-.4 1.6-1.8 2.8-3.5 2.9l-12.7.8c-2.1.1-3.7 1.8-3.7 3.9v15.5c0 2.1 1.6 3.8 3.7 3.9l12.7.8c1.7.1 3.1 1.3 3.5 2.9 1.4 5.4 3.6 10.6 6.3 15.3.9 1.4.7 3.3-.4 4.6l-8.4 9.5c-1.4 1.6-1.3 3.9.2 5.4l10.9 10.9.1.1c1.5 1.5 3.8 1.5 5.4.2l7.2-6.3 2.3-2c1.3-1.1 3.1-1.3 4.6-.4 1.5.9 3.1 1.7 4.7 2.5 3.4 1.6 6.9 2.9 10.6 3.8 1.6.4 2.8 1.9 2.9 3.5l.8 12.7c.1 2.1 1.8 3.7 3.9 3.7h15.5c2.1 0 3.8-1.6 3.9-3.7l.8-12.7c.1-1.7 1.3-3.1 2.9-3.5 1.3-.3 2.6-.7 3.9-1.2 4-1.3 7.8-3.1 11.4-5.2 1.5-.9 3.3-.7 4.5.4l9.5 8.4c.7.6 1.7 1 2.6 1 1 0 2-.4 2.8-1.1l11-11c1.5-1.5 1.5-3.8.2-5.4l-8.4-9.5c-1.1-1.3-1.3-3.1-.4-4.5 2.8-4.7 4.9-9.9 6.3-15.3.4-1.6 1.9-2.8 3.5-2.9l12.7-.8c2.1-.1 3.7-1.8 3.7-3.9v-15.5c.1-2.3-1.5-4-3.5-4.1zm-47.4 12.2c-.3 14.8-12.4 26.9-27.2 27.2-1.8 0-3.5-.1-5.3-.4-3.8-.7-7.4-2.1-10.5-4.1-3.5-2.3-6.4-5.3-8.6-8.9-2.6-4.3-4-9.4-3.9-14.8.2-11.4 7.4-21.2 17.5-25.3 3-1.2 6.3-1.9 9.7-2 .9 0 1.7 0 2.5.1 3.9.3 7.6 1.4 10.9 3.1 9.1 4.7 15.1 14.2 14.9 25.1zm53.8 136.7h-163c-6.9 0-12.5-5.6-12.5-12.5s5.6-12.5 12.5-12.5h163.1c6.9 0 12.5 5.6 12.5 12.5s-5.6 12.5-12.6 12.5zm71.1 55.4H103.4c-6.9 0-12.5-5.6-12.5-12.5s5.6-12.5 12.5-12.5h305.1c6.9 0 12.5 5.6 12.5 12.5.1 6.9-5.5 12.5-12.4 12.5zm0 55.4H103.4c-6.9 0-12.5-5.6-12.5-12.5s5.6-12.5 12.5-12.5h305.1c6.9 0 12.5 5.6 12.5 12.5.1 6.8-5.5 12.5-12.4 12.5zm-115 55.3H103.4c-6.9 0-12.5-5.6-12.5-12.5s5.6-12.5 12.5-12.5h190.2c6.9 0 12.5 5.6 12.5 12.5.1 6.9-5.6 12.5-12.5 12.5z" fill="#209fb3"/></svg>