<svg id="Calque_1" data-name="Calque 1" xmlns="http://www.w3.org/2000/svg" viewBox="0 0 432.23 183.81"><defs><clipPath id="clip-path"><path fill="none" d="M0 0h432.23v183.81H0z"/></clipPath><style>.cls-4{fill:#009cb5}</style></defs><g clip-path="url(#clip-path)"><path d="M38.32 71.33a4.71 4.71 0 00-1.24-3.19l-13.7-15a4.71 4.71 0 00-7 .08l-6.93 7.91V45.56a4.73 4.73 0 00-9.45 0v47.77a4.73 4.73 0 109.45 0V75.47l9.33-10.65a1.63 1.63 0 012.43 0l7.67 8.37v20.14a4.72 4.72 0 109.44 0zM78 78.05a11.81 11.81 0 00-3.14-8.27 9.91 9.91 0 00-7.47-3.3 9.69 9.69 0 00-7.47 3.3 11.75 11.75 0 00-3 8.27 12 12 0 003 8.28 10.11 10.11 0 007.47 3.13 10.34 10.34 0 007.47-3.13A12.11 12.11 0 0078 78.05m8.51 0V93.8a4.29 4.29 0 01-4.26 4.26A4.37 4.37 0 0178 94.6a18.25 18.25 0 01-10.69 3.46 18.63 18.63 0 01-13.65-5.87 20.52 20.52 0 01-5.47-14.14 20.27 20.27 0 015.47-14.14 18.5 18.5 0 0113.65-6A18.3 18.3 0 0178 61.42a4.36 4.36 0 014.17-3.53 4.31 4.31 0 014.26 4.34zm24.49 0a11.33 11.33 0 003.22 8 10.28 10.28 0 007.55 3.29 10.43 10.43 0 007.54-3.34 11.66 11.66 0 000-16.07 10.41 10.41 0 00-7.55-3.3 10.26 10.26 0 00-7.55 3.3 11.41 11.41 0 00-3.21 8.12m-8.75 0V46.16a4.38 4.38 0 018.75 0v15.1a19 19 0 0110.77-3.37c10.84 0 19.52 9.16 19.52 20.16s-8.68 20-19.52 20a19.62 19.62 0 01-10.93-3.46 4.34 4.34 0 01-8.59-.88zM164 62.39v31.33a4.27 4.27 0 01-4.33 4.34 4.33 4.33 0 01-4.35-4.34V62.39a4.29 4.29 0 014.39-4.39 4.24 4.24 0 014.29 4.39m0-14.55a4.34 4.34 0 01-4.33 4.42 4.39 4.39 0 01-4.35-4.42v-1.68a4.33 4.33 0 014.35-4.34 4.27 4.27 0 014.33 4.34zm32 14.47a4.53 4.53 0 01-4.5 4.42h-2v22.41a4.42 4.42 0 014.41 4.5 4.36 4.36 0 01-4.41 4.42 9 9 0 01-8.93-8.92V66.73h-2.33a4.41 4.41 0 01-4.41-4.42 4.36 4.36 0 014.41-4.42h2.33V46.24a4.43 4.43 0 014.5-4.42 4.36 4.36 0 014.43 4.42v11.65h2a4.48 4.48 0 014.5 4.42m37.08 15.74a11.8 11.8 0 00-3.08-8.27 9.92 9.92 0 00-7.47-3.3 9.69 9.69 0 00-7.47 3.3 11.76 11.76 0 00-3.06 8.27 12 12 0 003 8.28 10.11 10.11 0 007.47 3.13 10.36 10.36 0 007.53-3.13 12.1 12.1 0 003.13-8.28m8.52 0V93.8a4.29 4.29 0 01-4.26 4.26 4.36 4.36 0 01-4.17-3.46 18.27 18.27 0 01-10.69 3.46 18.65 18.65 0 01-13.66-5.87 20.56 20.56 0 01-5.46-14.14 20.31 20.31 0 015.46-14.14 18.52 18.52 0 0113.66-6 18.33 18.33 0 0110.69 3.53 4.25 4.25 0 018.43.81zm33.79-15.74a4.52 4.52 0 01-4.44 4.42h-2v22.41a4.43 4.43 0 014.42 4.5 4.36 4.36 0 01-4.42 4.42 9 9 0 01-9-8.92V66.73h-2.33a4.41 4.41 0 01-4.41-4.42 4.36 4.36 0 014.41-4.42H260V46.24a4.43 4.43 0 014.5-4.42 4.36 4.36 0 014.42 4.42v11.65h2a4.47 4.47 0 014.49 4.42m-267.13 57a3.32 3.32 0 01-2.45 1.12 3.37 3.37 0 01-2.51-1.11 3.9 3.9 0 01-1.07-2.72 4 4 0 011.06-2.73 3.4 3.4 0 012.52-1.1 3.33 3.33 0 012.45 1.1 4 4 0 011.06 2.73 3.94 3.94 0 01-1.06 2.71m1.47-6.84a5.33 5.33 0 00-3.92-1.75 5.43 5.43 0 00-4 1.75 6.07 6.07 0 000 8.26 5.47 5.47 0 004 1.75 5.36 5.36 0 003.92-1.75 6 6 0 001.64-4.13 6.06 6.06 0 00-1.64-4.13zm11.98-.47a1 1 0 00-1-1l-1 .13a2 2 0 00-1.23 1 3.58 3.58 0 00-.31 1.62v.11h-.29a1 1 0 100 2h.31v5.55a1 1 0 002 0v-5.55h.36a1 1 0 100-2h-.37v-.11l.06-.6v-.13h.45a1 1 0 001-1m9.03-.02a1 1 0 00-1-1l-1 .13a2 2 0 00-1.22 1 3.46 3.46 0 00-.32 1.62v.11h-.3a1 1 0 100 2h.3v5.55a1 1 0 002 0v-5.55h.37a1 1 0 000-2h-.37v-.11l.06-.6v-.13h.45a1 1 0 001-1m5.63 1.33a1 1 0 001-1V112a1 1 0 10-2 0v.34a1 1 0 001 1m0 9.14a1 1 0 001-1v-6.25a1 1 0 10-2 0v6.25a1 1 0 001 1m13.18-2.24l-1.3-.19a2.56 2.56 0 01-1.47.49 2.26 2.26 0 01-2.26-2.18 2.29 2.29 0 012.26-2.2 2.52 2.52 0 011.47.49l1.24-.16h.11l-.19-1.3a4.34 4.34 0 00-2.62-.9 4.12 4.12 0 100 8.23 4.54 4.54 0 002.62-.87l.18-1.24zm9.1-4.24a2.53 2.53 0 012.2 1.48h-4.2a2.1 2.1 0 012-1.48m0-1.74a4.07 4.07 0 00-4 4.11 4.08 4.08 0 004 4.11 4.19 4.19 0 003-1.08v-1.2H60.3a2.42 2.42 0 01-1.38.39h-.21a2.33 2.33 0 01-1.46-.68l-.45-.88h4.91a.89.89 0 00.95-.74v-.22a3.93 3.93 0 00-4-3.83m21.5 1.88H78.3V113h1.86a1.54 1.54 0 110 3.08m-2.87 6.36a1 1 0 001-1v-3.37h1.86a3.54 3.54 0 100-7.08h-2.86a1 1 0 00-1 1v9.45a1 1 0 001 1m17.26-8.19a.94.94 0 00-.94 1V119a1.56 1.56 0 01-1.61 1.56 1.51 1.51 0 01-1.49-1.56v-3.83a1 1 0 10-1.92 0V119a3.47 3.47 0 006.93 0v-3.83a1 1 0 00-1-1m12.68 5.72a1.94 1.94 0 01-1.43.62 1.91 1.91 0 01-1.42-.62 2.21 2.21 0 010-3 1.91 1.91 0 011.42-.62 1.94 1.94 0 011.43.62 2.21 2.21 0 010 3m2.58-1.51a4.07 4.07 0 00-4-4.13 3.84 3.84 0 00-2 .61V112a1 1 0 00-2 0v9.47a1 1 0 001 1 1 1 0 00.89-.66 3.91 3.91 0 002.13.66 4.07 4.07 0 004-4.1m6.85 4.11a1 1 0 001-1V112a1 1 0 10-2 0v9.45a1 1 0 001 1m7.08.03a1 1 0 001-1v-6.25a1 1 0 10-1.94 0v6.25a1 1 0 001 1m-.06-9.13a1 1 0 001-1V112a1 1 0 00-1-1 1 1 0 00-1 1v.34a1 1 0 001 1m10.33 9.14a4.49 4.49 0 002.61-.87l.18-1.23v-.11l-1.31-.19a2.51 2.51 0 01-1.46.49 2.25 2.25 0 01-2.26-2.18 2.27 2.27 0 012.26-2.2 2.49 2.49 0 011.46.49l1.25-.16h.11l-.19-1.3a4.36 4.36 0 00-2.62-.9 4.12 4.12 0 100 8.23m21.61-2.66a1.94 1.94 0 01-1.43.62 2 2 0 01-1.43-.62 2.21 2.21 0 010-3 2 2 0 011.43-.63 2 2 0 011.43.63 2.21 2.21 0 010 3m-1.43 2.59a4 4 0 002.15-.66.94.94 0 00.88.66 1 1 0 001-1V112a1 1 0 10-2 0v2.84a3.88 3.88 0 00-2-.61 4.12 4.12 0 000 8.23m13.49-6.46a2.53 2.53 0 012.2 1.48h-4.2a2.11 2.11 0 012-1.48m0-1.74a4.08 4.08 0 00-4 4.11 4.08 4.08 0 004 4.11 4.19 4.19 0 003-1.08v-1.2h-1.31a2.39 2.39 0 01-1.38.39h-.21a2.33 2.33 0 01-1.46-.68l-.45-.88h4.91a.89.89 0 00.95-.74v-.22a3.93 3.93 0 00-4-3.83M186.4 111a1 1 0 00-1 1v9.45a1 1 0 002 0V112a1 1 0 00-1-1m7.29 0a1.16 1.16 0 00-1.2 1.19v.12a1.21 1.21 0 00.92 1.14 1.25 1.25 0 01-1 1.25l-.37.43-.07.08.58.52a2.47 2.47 0 001.59-.72 3.28 3.28 0 00.81-2.42v-.16c0-.9-.49-1.51-1.26-1.52m6.85 11.57a1 1 0 001-1v-3.74h3.93v3.74a1 1 0 002 0V112a1 1 0 10-2 0v3.73h-3.93V112a1 1 0 10-2 0v9.45a1 1 0 001 1m15.06-5.64a1.83 1.83 0 011.41-.63 1.88 1.88 0 011.41.62 2.3 2.3 0 01.6 1.58 2.35 2.35 0 01-.6 1.58 2 2 0 01-1.41.59 1.94 1.94 0 01-1.41-.59 2.34 2.34 0 01-.58-1.58 2.22 2.22 0 01.58-1.57m3.5 5a1 1 0 00.88.66 1 1 0 001-1v-6.3a1 1 0 00-1-1 1 1 0 00-.88.67 3.74 3.74 0 00-2.09-.67 3.8 3.8 0 00-2.8 1.23 4.31 4.31 0 000 5.8 3.81 3.81 0 002.8 1.2 3.66 3.66 0 002.09-.66m13.39-1.85a2 2 0 01-1.43.62 1.91 1.91 0 01-1.43-.62 2.21 2.21 0 010-3 1.95 1.95 0 012.85 0 2.22 2.22 0 010 3m-1.43-5.64a3.88 3.88 0 00-2 .61V112a1 1 0 00-2 0v9.47a1 1 0 001 1 1 1 0 00.89-.66 3.92 3.92 0 002.14.66 4.12 4.12 0 000-8.23m10.74-3.24a1 1 0 00-1 1v.34a1 1 0 001 1 1 1 0 001-1V112a1 1 0 00-1-1m0 3.26a1 1 0 00-1 1v6.25a1 1 0 001 1 1 1 0 001-1v-6.25a1 1 0 00-1-1m9.53-.01h-.29V112a1 1 0 00-1-1 1 1 0 00-1 1v2.22h-.35a1 1 0 100 2h.35v4.36a1.89 1.89 0 001.89 1.89 1 1 0 00.11-2v-4.3h.29a1 1 0 100-2m10.8 5.83a2 2 0 01-1.41.59 1.92 1.92 0 01-1.41-.59 2.34 2.34 0 01-.58-1.58 2.22 2.22 0 01.58-1.57 1.81 1.81 0 011.41-.63 1.92 1.92 0 011.41.62 2.3 2.3 0 01.6 1.58 2.35 2.35 0 01-.6 1.58m1.55-5.71a1 1 0 00-.87.67 3.76 3.76 0 00-2.09-.67 3.84 3.84 0 00-2.81 1.23 4.18 4.18 0 00-1.12 2.9 4.26 4.26 0 001.12 2.9 3.85 3.85 0 002.81 1.2 3.68 3.68 0 002.09-.66.94.94 0 00.87.66 1 1 0 001-1v-6.3a1 1 0 00-1-1m9.89 2.01a1 1 0 100-2h-.29V112a1 1 0 00-1-1 1 1 0 00-1 1v2.21h-.3a1 1 0 00-1 1 1 1 0 001 1h.36v4.36a1.89 1.89 0 001.88 1.89 1 1 0 00.11-2v-4.3zM2.58 136.06a1.94 1.94 0 011.42-.62 1.91 1.91 0 011.42.62 2.21 2.21 0 010 3.05 1.91 1.91 0 01-1.42.62 1.94 1.94 0 01-1.43-.62 2.21 2.21 0 010-3.05m4.43-5.8a1 1 0 00-1 1v2.84a3.81 3.81 0 00-2-.61 4.12 4.12 0 000 8.23 4 4 0 002.15-.72.94.94 0 00.89.66 1 1 0 001-1v-3.06H8v-6.35a1 1 0 00-1-1m10.59 11.45a3.49 3.49 0 003.49-3.44v-3.83a1 1 0 00-1-1 .94.94 0 00-.94 1v3.83a1.55 1.55 0 01-1.57 1.52 1.51 1.51 0 01-1.53-1.52v-3.83a1 1 0 00-1-1 1 1 0 00-1 1v3.83a3.46 3.46 0 003.45 3.44m24.6-5.7a3.7 3.7 0 01-3.7 3.73h-.88v-7.44h.88a3.71 3.71 0 013.7 3.71m2 0a5.71 5.71 0 00-5.71-5.71H36.5a1 1 0 00-1 1v9.46a1 1 0 001 1h1.89A5.72 5.72 0 0044.1 136m9.41-.79a2.52 2.52 0 012.2 1.48h-4.2a2.11 2.11 0 012-1.48m0-1.74a4.09 4.09 0 00-4 4.12 4.09 4.09 0 004 4.11 4.15 4.15 0 003-1.09v-1.2l-1.31.05a2.45 2.45 0 01-1.39.39h-.21a2.33 2.33 0 01-1.46-.68l-.45-.88h4.92a.88.88 0 00.94-.73v-.23a3.94 3.94 0 00-4-3.83m-1.14-.95a1.61 1.61 0 001.21-.46l1.08-1 .28-.5c0-.45-.72-.72-1.27-.74l-.79.48-.92 1.38-.13.36v.08l.07.05zm16.05 6.58a2 2 0 01-1.43.64 1.86 1.86 0 01-1.44-.64 2.05 2.05 0 01-.59-1.53 2.1 2.1 0 01.59-1.54 1.91 1.91 0 011.44-.62 2 2 0 011.43.62 2.36 2.36 0 01.6 1.54 2.3 2.3 0 01-.6 1.53M64 144.71a1 1 0 001-1v-2.65a3.75 3.75 0 002 .6 4 4 0 004-4.09 4 4 0 00-6.13-3.5 1 1 0 00-.92-.63 1 1 0 00-1 1v9.31a1 1 0 001 1m14.5-8.75a1.83 1.83 0 011.41-.63 1.92 1.92 0 011.41.62 2.25 2.25 0 01.6 1.58 2.3 2.3 0 01-.6 1.58 2 2 0 01-1.41.59 1.94 1.94 0 01-1.41-.59 2.34 2.34 0 01-.58-1.58 2.22 2.22 0 01.58-1.57m1.41 5.67A3.66 3.66 0 0082 141a1 1 0 00.88.66 1 1 0 001-1v-6.3a1 1 0 00-1-1 1 1 0 00-.88.67 3.66 3.66 0 00-2.09-.67 3.79 3.79 0 00-2.8 1.24 4.14 4.14 0 00-1.12 2.89 4.21 4.21 0 001.12 2.9 3.83 3.83 0 002.8 1.2m14.19-8.11H94a3.64 3.64 0 00-2 .65l-.2.2a1 1 0 00-1.91.1v6.31a1 1 0 001.95 0v-3a5.17 5.17 0 01.64-1.3l.71-.74.93-.3a1 1 0 00.93-.95 1 1 0 00-1-1m6.26 2h.36v4.36a1.89 1.89 0 001.89 1.89 1 1 0 00.1-1.95v-4.3h.3a1 1 0 001-1 1 1 0 00-1-1h-.3v-2.21a1 1 0 00-1-1 1 1 0 00-1 1v2.21h-.36a1 1 0 100 2m12.26-.24a2.52 2.52 0 012.2 1.48h-4.2a2.12 2.12 0 012-1.48m3 5.4v-1.2l-1.32.05a2.42 2.42 0 01-1.38.39h-.21a2.38 2.38 0 01-1.46-.68l-.45-.88h4.91a.88.88 0 00.94-.73v-.23a3.94 3.94 0 00-4-3.83 4.07 4.07 0 00-4 4.12 4.15 4.15 0 007 3m18.41-3.68a3.46 3.46 0 00-3.45-3.47 3.41 3.41 0 00-2.52 1.08 3.41 3.41 0 00-4.22-.61l-.72-.46a1 1 0 00-1 1v6.29a1 1 0 00.77.94h.21l.84-.53v-4.25a1.53 1.53 0 013 0v3.84a1 1 0 001 1 1 1 0 001-1v-3.87a1.57 1.57 0 011.56-1.5 1.53 1.53 0 011.51 1.54v3.8a1 1 0 001.94 0zm10-1.73a2.53 2.53 0 012.2 1.48H142a2.12 2.12 0 012-1.48m0-1.74a4.07 4.07 0 00-4 4.12 4.08 4.08 0 004 4.11 4.15 4.15 0 002.95-1.09v-1.2l-1.32.05a2.42 2.42 0 01-1.38.39H144a2.33 2.33 0 01-1.46-.68l-.45-.88H147a.89.89 0 00.95-.73v-.23a3.94 3.94 0 00-4-3.83m12.95-.03a3.33 3.33 0 00-1.69.48l-.74-.46a1 1 0 00-1 1v6.31a1 1 0 001 1 1 1 0 001-.77v-4.01a1.5 1.5 0 011.5-1.51 1.54 1.54 0 011.55 1.51v3.83a1 1 0 001 1 1 1 0 001-1v-3.83a3.46 3.46 0 00-3.46-3.44m12.24-.11h-.3v-2.21a1 1 0 10-2 0v2.21h-.36a1 1 0 100 2h.36v4.36a1.89 1.89 0 001.88 1.89 1 1 0 00.12-1.95v-4.3h.29a1 1 0 001-1 1 1 0 00-1-1M2.58 155.28a1.94 1.94 0 011.42-.62 1.91 1.91 0 011.42.62 2.21 2.21 0 010 3.05A1.91 1.91 0 014 159a1.94 1.94 0 01-1.43-.62 2.21 2.21 0 010-3.05M7 149.48a1 1 0 00-1 1v2.84a3.81 3.81 0 00-2-.61 4.12 4.12 0 000 8.23 4 4 0 002.14-.66.94.94 0 00.89.66 1 1 0 001-1v-3.13H8v-6.35a1 1 0 00-1-1m10.52 4.97a2.52 2.52 0 012.2 1.48h-4.2a2.12 2.12 0 012-1.48m0-1.74a4.07 4.07 0 00-4 4.12 4.08 4.08 0 004 4.11 4.13 4.13 0 002.95-1.09v-1.2l-1.32.05a2.42 2.42 0 01-1.38.39h-.22a2.3 2.3 0 01-1.45-.68l-.46-.88h4.92a.89.89 0 00.94-.73v-.23a3.94 3.94 0 00-4-3.83m18.63-3.24a1 1 0 00-1 1v9.45a1 1 0 002 0v-9.45a1 1 0 00-1-1m10.57 8.92a2 2 0 01-2.82 0 2.33 2.33 0 01-.57-1.58 2.23 2.23 0 01.57-1.57 1.9 1.9 0 012.82 0 2.27 2.27 0 01.6 1.58 2.3 2.3 0 01-.6 1.58m1.56-5.71a.94.94 0 00-.87.67 3.73 3.73 0 00-4.9.56 4.31 4.31 0 000 5.8 3.84 3.84 0 002.81 1.2 3.7 3.7 0 002.09-.66.93.93 0 00.87.66 1 1 0 001-1v-6.29a1 1 0 00-1-1m21.66 1.97a10.14 10.14 0 00-2.24-.69 5.31 5.31 0 01-2-.68l-.4-.39-.1-.39a1.16 1.16 0 01.56-.92 3 3 0 011.73-.52A4.53 4.53 0 0170 152l1.18-.25h.11l-.25-1.25a6.46 6.46 0 00-3.56-1.3 4.88 4.88 0 00-2.84.87 3.11 3.11 0 00-1.33 2.43 2.64 2.64 0 00.39 1.38 3.6 3.6 0 001.54 1.29 9.13 9.13 0 002.09.63 6 6 0 012.14.74l.45.44.13.47a1.31 1.31 0 01-.64 1.05 3.33 3.33 0 01-1.94.57 5.1 5.1 0 01-3-1.2l-1.22.11h-.11v.02l.13 1.17a7 7 0 004.17 1.63 5.12 5.12 0 003-.94A3.21 3.21 0 0072 157.4a2.71 2.71 0 00-.41-1.42 3.74 3.74 0 00-1.64-1.37m10.74-.18a2.52 2.52 0 012.2 1.48h-4.2a2.11 2.11 0 012-1.48m0-1.74a4.09 4.09 0 00-4 4.12 4.09 4.09 0 004 4.11 4.15 4.15 0 003-1.09v-1.2l-1.31.05a2.39 2.39 0 01-1.38.39h-.3a2.33 2.33 0 01-1.46-.68l-.45-.88h4.92a.89.89 0 00.94-.73v-.23a3.93 3.93 0 00-4-3.83m10.53-.01a1 1 0 00-1 1V160a1 1 0 002 0v-6.3a1 1 0 00-1-1m0-3.22a1 1 0 00-1 1v.34a1 1 0 102 0v-.34a1 1 0 00-1-1m10.16 3.21a3.33 3.33 0 00-1.69.48l-.74-.46a1 1 0 00-1 1V160a1 1 0 001 1 1 1 0 001-.77v-4.01a1.49 1.49 0 011.5-1.51 1.54 1.54 0 011.55 1.51V160a1 1 0 001 1 1 1 0 001-1v-3.83a3.46 3.46 0 00-3.46-3.44m12.87 1.7a2.55 2.55 0 012.21 1.48h-4.21a2.12 2.12 0 012-1.48m0-1.74a4.07 4.07 0 00-4 4.12 4.08 4.08 0 004 4.11 4.12 4.12 0 002.95-1.09v-1.2l-1.32.05a2.42 2.42 0 01-1.38.39h-.21a2.33 2.33 0 01-1.46-.68l-.45-.88h4.91a.88.88 0 00.94-.73v-.23a3.94 3.94 0 00-4-3.83m13.16 2.12h-3a1.06 1.06 0 100 2.12h3a1.06 1.06 0 100-2.12m15.14-5.36h-.05l-.74.38-3.11 4.32-3.12-4.32-.72-.38h-.07a1 1 0 00-1 1v9.45a1 1 0 002 0v-6.4l2.09 2.92.76.38h.08l.75-.38 2.13-2.94v6.4a1 1 0 001 1 1 1 0 001-1v-9.45a1 1 0 00-1-1m12.17 8.94a2 2 0 01-1.41.59 1.94 1.94 0 01-1.41-.59 2.34 2.34 0 01-.58-1.58 2.24 2.24 0 01.58-1.57 1.83 1.83 0 011.41-.63 1.92 1.92 0 011.41.62 2.27 2.27 0 01.6 1.58 2.3 2.3 0 01-.6 1.58m1.56-5.71a1 1 0 00-.88.67 3.74 3.74 0 00-2.09-.67 3.8 3.8 0 00-2.8 1.23 4.31 4.31 0 000 5.8 3.83 3.83 0 002.8 1.2 3.66 3.66 0 002.09-.66.94.94 0 001.83-.3v-6.29a1 1 0 00-1-1m11.32.04h-.07a3.62 3.62 0 00-2 .65l-.21.2a1 1 0 00-1.9.1V160a1 1 0 001 1 1 1 0 001-1v-3a4.74 4.74 0 01.63-1.3l.71-.74.94-.3a1 1 0 00.92-.95.93.93 0 00-.95-.94m6.95-.06a1 1 0 00-1 1V160a1 1 0 002 0v-6.3a1 1 0 00-1-1m0-3.22a1 1 0 00-1 1v.34a1 1 0 102 0v-.34a1 1 0 00-1-1m9.54 3.21h-.29v-2.21a1 1 0 00-1-1 1 1 0 00-1 1v2.21h-.36a1 1 0 100 2h.36V159a1.89 1.89 0 001.89 1.89 1 1 0 00.11-1.95v-4.3h.29a1 1 0 001-1 1 1 0 00-1-1m7.79-3.16a1 1 0 00-1 1v.34a1 1 0 101.95 0v-.34a1 1 0 00-1-1m.05 3.23a1 1 0 00-1 1V160a1 1 0 001.95 0v-6.3a1 1 0 00-1-1m15.23-.01a3.41 3.41 0 00-2.52 1.08 3.39 3.39 0 00-2.51-1.08 3.5 3.5 0 00-1.71.46l-.72-.45h-.05a1 1 0 00-1 1v6.3a1 1 0 00.77.94h.21l.84-.54h.05v-4.19a1.53 1.53 0 013.05 0V160a1 1 0 001 1 1 1 0 001-1v-3.84a1.57 1.57 0 011.56-1.5 1.54 1.54 0 011.51 1.54v3.8a1 1 0 001.94 0v-3.8a3.46 3.46 0 00-3.45-3.47m13.45 1.7a2.53 2.53 0 012.2 1.48h-4.21a2.12 2.12 0 012-1.48m0-1.74a4.07 4.07 0 00-4 4.12 4.08 4.08 0 004 4.11 4.15 4.15 0 003-1.09v-1.2l-1.32.05a2.42 2.42 0 01-1.38.39h-.21a2.33 2.33 0 01-1.46-.68l-.45-.88h4.91a.9.9 0 00.95-.73v-.23a3.94 3.94 0 00-4-3.83" fill="#1d1d1d"/><path class="cls-4" d="M399.29 151.06v-15.44c.17-6.69 1-9.43 6.07-9.43 6.07 0 6.07 4.12 6.07 14.06v13.88a40.85 40.85 0 01-.3 5.15c-.32 2.22-1 3.88-2.24 4.85a5.63 5.63 0 01-3.51 1c-6.07 0-6.07-5.49-6.07-14.06m32.35 8.73c0-.17.06-.33.08-.5.14-1 .24-2.16.32-3.29 0-.23 0-.44.06-.68.08-1.36.13-2.78.13-4.26v-10.82c0-23.84-11.27-32.76-26.87-32.76a34 34 0 00-6.07.52V94.63c0-6.69 0-12.18 6.07-12.18s6.07 5.49 6.07 12.18c0 2.57.86 3.43 3.46 3.43h13.7c2.6 0 3.47-1.72 3.47-4.29 0-18.52-8.15-30.87-26.7-30.87-17.34 0-26.88 8.4-26.88 34.3v53.86c0 24.05 11.32 32.66 26.8 32.75h.16c8 0 14.89-2.41 19.68-8l.28-.17a28.87 28.87 0 005.58-12.47 1.6 1.6 0 000-.21c.22-1 .4-2.07.55-3.17M375.88 41h-53.33c-2.6 0-2.05.81-2.05 3.38v12.7c0 2.57-.55 3.47 2.05 3.47h34.25c1 0 1.73.52 1.39 2.06l-22.19 95c-.7 2.75.86 3.43 2.59 3.43H353c1.73 0 3.12-.17 3.81-3.43l22-99a17.37 17.37 0 00.53-3.77v-10.4c0-2.58-.87-3.44-3.47-3.44"/><path class="cls-4" d="M423.54 44.65L379.78.55a1.83 1.83 0 00-2.61 0l-33.05 33.32h31.75a12.88 12.88 0 014.07.59 9.4 9.4 0 014.63 3.27 9.62 9.62 0 011.56 3.2 13.4 13.4 0 01.43 3.51v10.45a24.68 24.68 0 01-.69 5.31l-.13.56a28.25 28.25 0 015.65-2.85 41.26 41.26 0 0114-2.14 37.5 37.5 0 0114.87 2.81 28.28 28.28 0 013.85 2V46a1.87 1.87 0 00-.54-1.32"/></g></svg>