<svg data-name="Calque 1" xmlns="http://www.w3.org/2000/svg" viewBox="0 0 444.26 386.71"><path d="M7.05 300.86v26.45h12.59v3.62H3v-30.07zm16.3 10.94c2-2.27 4.7-3.06 7.88-3.06 5.41 0 8.2 2.23 8.2 7.94v14.25h-3.62v-3.62a7.45 7.45 0 01-6.93 4.1 6.41 6.41 0 01-4.66-1.66 6 6 0 01-1.75-4.66 5.78 5.78 0 012.49-5.23c1.87-1.31 4.53-1.79 7.54-1.79h3.13V317c0-3.75-1.13-5-4.49-5a7.08 7.08 0 00-5.62 2.23zm8.71 9.2c-3.48 0-5.62.57-5.62 3.88 0 2 .79 3.27 3 3.27 2.79 0 6.11-2.13 6.24-7.15zm41.23-11.82v32.21h-3.92v-13.91a8.05 8.05 0 01-7 3.93 6.84 6.84 0 01-5-2.05c-2-2-2.62-5.1-2.62-8.89s.61-7.19 2.66-9.37a7.76 7.76 0 015.84-2.36 7.12 7.12 0 016.49 3.36l.05-2.92zM63.18 328a5.55 5.55 0 004.22-1.91c1.49-1.57 2.1-3.88 2.1-6.63 0-2.44-.48-4.4-1.7-5.62a5.65 5.65 0 00-4.1-1.66c-3.7 0-4.79 2.71-4.79 8.28 0 4.54.74 7.54 4.27 7.54zm30.54 2.93v-4.54a7 7 0 01-7 5c-4.1 0-6.28-2.58-6.28-7.19v-15h3.92v14.25c0 2.57.66 4.53 3.14 4.53 3.1 0 6-3 6-10.81v-8h3.88v21.75zm9.72-19.13c2-2.27 4.71-3.06 7.89-3.06 5.4 0 8.19 2.23 8.19 7.94v14.25h-3.61v-3.62a7.43 7.43 0 01-6.93 4.1 6.44 6.44 0 01-4.66-1.66 6 6 0 01-1.74-4.66 5.79 5.79 0 012.48-5.23c1.87-1.31 4.53-1.79 7.54-1.79h3.14V317c0-3.75-1.14-5-4.49-5a7.06 7.06 0 00-5.62 2.23zm8.72 9.23c-3.49 0-5.62.57-5.62 3.88 0 2 .78 3.27 3 3.27 2.79 0 6.1-2.13 6.23-7.15zm18.21-23.44v33.34h-3.92v-33.34zm9.11 1.74a2.55 2.55 0 010 5.1 2.51 2.51 0 01-2.53-2.57 2.48 2.48 0 012.53-2.53zm2 9.85v21.75h-3.92v-21.75zm19.7 21.48a15.66 15.66 0 01-4.36.57c-5.36 0-6.45-2.44-6.45-7.54V313h-4v-3.45h4v-6.25l3.88-.48v6.75h6.63V313h-6.63v10.45c0 3 .22 4.32 3.14 4.32a15.52 15.52 0 003.44-.44zm21.88-2.83a11.15 11.15 0 01-8.59 3.53c-3.05 0-5.18-.83-6.67-2.31-1.74-1.74-2.65-4.23-2.65-8.37 0-3.44.65-7.05 2.57-9.19a8.82 8.82 0 017-2.83c6.28 0 8.59 4.18 8.59 9.32 0 .7-.05 1.83-.14 2.66l-13.94.09c.09 4.44.78 7.28 5.27 7.28a8.92 8.92 0 006.45-2.62zm-3.84-10.24c.05-3.53-.74-5.66-4.57-5.66s-5.1 2.26-5.32 5.7zm-8.58-13l6.36-7.67 2.66 2.27-6.66 7.46zm45.84-7v33.34h-3.75v-3.84a8.2 8.2 0 01-7.32 4.32 6.27 6.27 0 01-4.92-2.1c-1.75-1.91-2.57-4.53-2.57-8.89 0-3.87.65-7.14 2.7-9.28a8 8 0 016.19-2.4c2.44 0 4.53.7 5.75 2.66v-13.81zm-6.19 28.5c1.66-1.74 2.4-4.18 2.4-7.15 0-2.53-.57-4.27-1.7-5.4a5.1 5.1 0 00-3.79-1.35c-4.14 0-5.1 2.83-5.1 8s1 7.75 4.05 7.75a5.62 5.62 0 004.14-1.85zm30.24 1.74a11.12 11.12 0 01-8.58 3.53c-3 0-5.19-.83-6.67-2.31-1.74-1.74-2.66-4.23-2.66-8.37 0-3.44.66-7.05 2.57-9.19a8.86 8.86 0 017-2.83c6.27 0 8.58 4.18 8.58 9.32 0 .7 0 1.83-.13 2.66l-13.94.09c.08 4.44.78 7.28 5.27 7.28a8.94 8.94 0 006.45-2.62zm-3.83-10.24c0-3.53-.74-5.66-4.58-5.66s-5.1 2.26-5.31 5.7zm30.37-4.01a7.59 7.59 0 00-4.84-1.57c-2.26 0-3.66.74-3.66 2.66 0 4.32 11.16 2.44 11.16 10.29 0 4.7-4.18 6.4-8.32 6.4-2.75 0-5.63-.74-7.19-2.61l2-2.57a7.47 7.47 0 005.5 2c2.3 0 4.05-.65 4.05-3.05 0-4.66-11.2-2.61-11.2-10.24 0-4.18 3.57-6.15 8-6.15a9 9 0 016.53 2.27zm24.67 14.25a11.15 11.15 0 01-8.59 3.53c-3 0-5.18-.83-6.67-2.31-1.74-1.74-2.65-4.23-2.65-8.37 0-3.44.65-7.05 2.57-9.19a8.82 8.82 0 017-2.83c6.27 0 8.58 4.18 8.58 9.32 0 .7 0 1.83-.13 2.66l-13.94.09c.09 4.44.78 7.28 5.27 7.28a8.92 8.92 0 006.45-2.62zm-3.84-10.24c0-3.53-.74-5.66-4.57-5.66s-5.1 2.26-5.32 5.7zm14.1-8.41l-.05 4.31c.87-2.83 2.92-4.7 5.49-4.7a9.59 9.59 0 011.27.09l-.35 3.87c-.39 0-.83-.08-1.13-.08-4 0-5.06 5.36-5.06 10.46v7.8h-3.92v-21.75zm13 0l5.44 17.61 5.49-17.61H330l-7.41 21.75h-4.49l-7.32-21.75zm21.53-9.85a2.55 2.55 0 010 5.1 2.51 2.51 0 01-2.52-2.57 2.47 2.47 0 012.52-2.53zm2 9.85v21.75h-3.92v-21.75zm22.71 18.52a9.83 9.83 0 01-8 3.66 7.71 7.71 0 01-6.23-2.57c-1.74-2-2.35-4.79-2.35-8.41 0-3.44.56-6.93 2.61-9.15 1.44-1.57 3.49-2.57 6.76-2.57a9.07 9.07 0 016.88 2.57l-2.22 2.61a6.44 6.44 0 00-4.62-1.7c-4.31 0-5.23 2.62-5.23 7.85s.92 8 4.58 8a7 7 0 005.49-2.66zm21.36.13a11.15 11.15 0 01-8.59 3.53c-3.05 0-5.19-.83-6.67-2.31-1.74-1.74-2.66-4.23-2.66-8.37 0-3.44.66-7.05 2.58-9.19a8.82 8.82 0 017-2.83c6.27 0 8.58 4.18 8.58 9.32 0 .7 0 1.83-.13 2.66l-13.94.09c.08 4.44.78 7.28 5.27 7.28a8.92 8.92 0 006.45-2.62zm-3.84-10.24c0-3.53-.74-5.66-4.58-5.66s-5.09 2.26-5.31 5.7zM19.82 373.15a11.14 11.14 0 01-8.59 3.53c-3.05 0-5.18-.83-6.66-2.31-1.75-1.74-2.66-4.23-2.66-8.36 0-3.45.65-7.06 2.57-9.2a8.82 8.82 0 017-2.83c6.28 0 8.59 4.18 8.59 9.32 0 .7-.05 1.83-.13 2.66L6 366.05c.09 4.44.78 7.28 5.27 7.28a8.92 8.92 0 006.45-2.62zM16 362.91c.05-3.53-.74-5.66-4.57-5.66s-5.1 2.26-5.32 5.7zm13.36-8.41v4.53a7.17 7.17 0 017.1-5c4.1 0 6.36 2.74 6.36 7.23v15h-3.96v-14.13c0-3-.7-4.58-3.09-4.58-3.4 0-6.23 3.27-6.23 11v7.72h-3.93V354.5zm27.24 2.62c2-2.27 4.7-3.06 7.88-3.06 5.41 0 8.2 2.23 8.2 7.94v14.25h-3.62v-3.62a7.45 7.45 0 01-6.93 4.1 6.45 6.45 0 01-4.67-1.66 6 6 0 01-1.74-4.66 5.79 5.79 0 012.48-5.23c1.88-1.31 4.54-1.79 7.54-1.79h3.14v-1.09c0-3.75-1.13-5-4.49-5a7.08 7.08 0 00-5.62 2.23zm8.71 9.23c-3.48 0-5.62.57-5.62 3.88 0 2 .79 3.27 3 3.27 2.79 0 6.1-2.13 6.24-7.15zm29.2 6.65a9.84 9.84 0 01-8 3.66 7.71 7.71 0 01-6.23-2.57c-1.74-2-2.35-4.79-2.35-8.41 0-3.44.56-6.93 2.61-9.15C82 355 84 354 87.27 354a9.08 9.08 0 016.89 2.57l-2.22 2.61a6.46 6.46 0 00-4.62-1.7c-4.32 0-5.23 2.62-5.23 7.85s.91 8 4.57 8a7 7 0 005.5-2.66zm17.26 3a15.66 15.66 0 01-4.36.57c-5.36 0-6.45-2.44-6.45-7.54v-10.69H97v-3.45h4v-6.27l3.88-.48v6.75h6.62v3.45h-6.62v10.45c0 3.06.21 4.32 3.13 4.32a15.68 15.68 0 003.45-.44zm6.92-31.35a2.55 2.55 0 010 5.1 2.51 2.51 0 01-2.52-2.57 2.47 2.47 0 012.52-2.53zm2 9.85v21.75h-3.92V354.5zm21.84 19.35c-1.66 1.79-3.7 2.83-7.1 2.83s-5.36-1-6.89-2.61c-2-2.09-2.44-4.67-2.44-8.33 0-4 .57-6.75 2.62-9a9 9 0 017.1-2.79c3.22 0 5.4 1 6.89 2.61 2 2.14 2.44 4.84 2.44 8.5 0 4-.57 6.52-2.62 8.79zm-3-15.12a4.82 4.82 0 00-3.83-1.4c-2.22 0-3.27.74-3.92 1.53-1.22 1.48-1.57 4-1.57 6.75 0 3.1.43 5.06 1.52 6.37a4.73 4.73 0 003.75 1.35 4.85 4.85 0 004-1.53c1.18-1.44 1.57-3.92 1.57-6.62s-.44-5.18-1.53-6.45zm14.81-4.23v4.53a7.17 7.17 0 017.1-5c4.1 0 6.36 2.74 6.36 7.23v15h-3.92v-14.13c0-3-.7-4.58-3.09-4.58-3.4 0-6.24 3.27-6.24 11v7.72h-3.92V354.5zm30.33 4.4a7.59 7.59 0 00-4.84-1.57c-2.26 0-3.66.74-3.66 2.66 0 4.32 11.16 2.44 11.16 10.29 0 4.7-4.19 6.4-8.33 6.4-2.74 0-5.62-.74-7.19-2.61l2.05-2.57a7.46 7.46 0 005.49 2c2.31 0 4.06-.65 4.06-3.05 0-4.66-11.2-2.61-11.2-10.24 0-4.18 3.57-6.15 8-6.15a9.06 9.06 0 016.54 2.27zm32.64 14.25a11.14 11.14 0 01-8.59 3.53c-3.05 0-5.18-.83-6.66-2.31-1.75-1.74-2.66-4.23-2.66-8.36 0-3.45.65-7.06 2.57-9.2a8.82 8.82 0 017-2.83c6.28 0 8.59 4.18 8.59 9.32 0 .7-.05 1.83-.13 2.66l-14 .09c.09 4.44.78 7.28 5.27 7.28a8.92 8.92 0 006.45-2.62zm-3.84-10.24c.05-3.53-.74-5.66-4.57-5.66s-5.1 2.26-5.32 5.7zM235.09 376a15.66 15.66 0 01-4.36.57c-5.36 0-6.45-2.44-6.45-7.54v-10.69h-4v-3.45h4v-6.27l3.88-.48v6.75h6.62v3.45h-6.62v10.45c0 3.06.22 4.32 3.14 4.32a15.67 15.67 0 003.44-.44zm30.55-2.85a11.15 11.15 0 01-8.59 3.53c-3.05 0-5.19-.83-6.67-2.31-1.74-1.74-2.66-4.23-2.66-8.36 0-3.45.66-7.06 2.58-9.2a8.82 8.82 0 017-2.83c6.27 0 8.58 4.18 8.58 9.32 0 .7 0 1.83-.13 2.66l-13.94.09c.08 4.44.78 7.28 5.27 7.28a8.94 8.94 0 006.45-2.62zm-3.84-10.24c0-3.53-.74-5.66-4.58-5.66s-5.09 2.26-5.31 5.7zm13.38-8.41l-.05 4.53a7.2 7.2 0 017.11-5c4.09 0 6.36 2.74 6.36 7.23v15h-3.92v-14.13c0-3-.7-4.58-3.1-4.58-3.4 0-6.23 3.27-6.23 11v7.72h-3.92V354.5zm32.11 0v3.84a8 8 0 017.24-4.36 6.58 6.58 0 015 2c2 2.13 2.57 5.57 2.57 9 0 4-.79 7.54-3.1 9.68a8.23 8.23 0 01-5.62 2 7.2 7.2 0 01-5.93-2.61v12.64h-3.95V354.5zm2 5.19a10.87 10.87 0 00-2 6.84c0 2.09.35 3.88 1.35 5.05a5.39 5.39 0 004.27 1.7c3.67 0 5-2.35 5-8.1 0-5.41-1.13-7.72-4.09-7.72a5.7 5.7 0 00-4.48 2.23zm21.97-5.19v4.31c1.26-3.39 3.53-4.83 6-4.83a5.69 5.69 0 012.62.61l-1.09 3.66a4.1 4.1 0 00-1.87-.39c-3.8 0-5.5 4.83-5.5 10v8.37h-3.92V354.5zm27.28 18.65a11.13 11.13 0 01-8.58 3.53c-3.06 0-5.19-.83-6.67-2.31-1.75-1.74-2.66-4.23-2.66-8.36 0-3.45.65-7.06 2.57-9.2a8.84 8.84 0 017-2.83c6.28 0 8.59 4.18 8.59 9.32 0 .7-.05 1.83-.13 2.66l-13.95.09c.09 4.44.79 7.28 5.28 7.28a8.9 8.9 0 006.44-2.62zm-3.83-10.24c0-3.53-.75-5.66-4.58-5.66s-5.1 2.26-5.32 5.7zm22.92 13.34v-4.54a7 7 0 01-7 5c-4.09 0-6.27-2.58-6.27-7.19v-15h3.92v14.25c0 2.57.65 4.53 3.14 4.53 3.09 0 6-3 6-10.8v-8h3.88v21.75zm11.72-21.75l5.45 17.61 5.49-17.61h4.09L397 376.25h-4.54l-7.32-21.75zm35.17 18.65a11.15 11.15 0 01-8.59 3.53c-3.05 0-5.19-.83-6.67-2.31-1.74-1.74-2.66-4.23-2.66-8.36 0-3.45.66-7.06 2.58-9.2a8.82 8.82 0 017-2.83c6.27 0 8.58 4.18 8.58 9.32 0 .7 0 1.83-.13 2.66l-13.94.09c.08 4.44.78 7.28 5.27 7.28a8.92 8.92 0 006.45-2.62zm-3.84-10.24c0-3.53-.74-5.66-4.58-5.66s-5.09 2.26-5.31 5.7zm20.05-4.01a7.61 7.61 0 00-4.84-1.57c-2.27 0-3.66.74-3.66 2.66 0 4.32 11.15 2.44 11.15 10.29 0 4.7-4.18 6.4-8.32 6.4-2.74 0-5.62-.74-7.19-2.61l2.05-2.57a7.44 7.44 0 005.49 2c2.31 0 4-.65 4-3.05 0-4.66-11.2-2.61-11.2-10.24 0-4.18 3.58-6.15 8-6.15a9.06 9.06 0 016.54 2.27z" fill="#1d1d1b"/><path d="M46.55 82.79A24.19 24.19 0 0038 76.45a28.21 28.21 0 00-10.84-1.87 31.32 31.32 0 00-10.79 1.8 21.05 21.05 0 00-8.23 5.24 20.57 20.57 0 00-4.44 6.52A37.46 37.46 0 001.31 96a66.26 66.26 0 00-1 8.83Q0 109.47 0 114.46t.26 9.64a68.35 68.35 0 001.05 8.9 37.48 37.48 0 002.39 8 20.68 20.68 0 004.42 6.52 21.19 21.19 0 008.16 5.24 30.68 30.68 0 0010.72 1.8 30.09 30.09 0 0010.62-1.73 21.76 21.76 0 008.49-6v130.02h19.5V75.46H46.55zm-.88 40.65a21.81 21.81 0 01-1.88 7.15 11.28 11.28 0 01-4.08 4.73 12.68 12.68 0 01-7 1.72 12.68 12.68 0 01-7-1.72 10.74 10.74 0 01-4-4.81 23.78 23.78 0 01-1.8-7.15 88.82 88.82 0 010-17.66 23.1 23.1 0 011.8-7.15 10.86 10.86 0 014-4.73 12.59 12.59 0 017-1.72 12.59 12.59 0 017 1.72 11.28 11.28 0 014.08 4.73 21.75 21.75 0 011.88 7.15 83.89 83.89 0 01.44 8.76 86.26 86.26 0 01-.44 8.98zm79.46-.7a16.7 16.7 0 01-1.21 6.75 12.56 12.56 0 01-3.08 4.36 12 12 0 01-4.18 2.42 14.48 14.48 0 01-4.58.77 14.86 14.86 0 01-4.62-.77 11.51 11.51 0 01-7.22-6.78 17.5 17.5 0 01-1.13-6.75V75.46H79.6v50a42.91 42.91 0 001.58 11.92 24.09 24.09 0 006.42 10.3 22.44 22.44 0 008 5.09 29 29 0 0010.52 1.8 28.3 28.3 0 0010.48-2 25.13 25.13 0 009-6v7.19h19.06v-78.3h-19.5zm77.96 31.82h19.06v-52.34q.07-27.64-33.32-27.64-9.74 0-16 2.38a31.48 31.48 0 00-12 8.69L173 97.82a20.69 20.69 0 016.47-5.17 20 20 0 018.59-1.58q7.78 0 11.17 2.93t3.38 9.39v3.88h-18.14a36 36 0 00-12 1.8 23.74 23.74 0 00-8.39 4.87 19.85 19.85 0 00-5 7.22 23.53 23.53 0 00-1.65 8.77 28.24 28.24 0 001.65 9.78 22.16 22.16 0 004.79 7.81q6.87 6.89 19.9 6.89a29.19 29.19 0 0011.07-1.79 25.89 25.89 0 008.19-5.69zm-.44-29.69A23 23 0 01202 131a7.64 7.64 0 01-2.35 3.81 11.9 11.9 0 01-5.26 3.08 26.49 26.49 0 01-6.28.66c-4.12 0-7.14-.8-9-2.42a8.15 8.15 0 01-2.88-6.59q0-8.88 11.55-8.87h14.92zm56.93 10.48a7.87 7.87 0 01-1.58-5.28V0h-19.5v131.32a26.72 26.72 0 001.28 8.17 19.67 19.67 0 004.07 7.15 20.6 20.6 0 007.15 5.1 25.42 25.42 0 0010.37 1.94h11.07v-16.5h-7.51q-3.76 0-5.35-1.83zm24.99-57.62h19.5v76.83h-19.5zm-.37-31.52h20.02v15.91H284.2zm-24.63 158.44a22.64 22.64 0 00-7.95-5.1 29.07 29.07 0 00-10.53-1.79 27 27 0 00-10.52 2 24.52 24.52 0 00-8.54 6v-44.41h-18.94v115.5H222v-47.28a16.62 16.62 0 011.21-6.74 12.64 12.64 0 013.08-4.37 12.14 12.14 0 014.21-2.46 14 14 0 019.16 0 12 12 0 014.18 2.42 11.77 11.77 0 013 4.37 17.4 17.4 0 011.14 6.74v47.28h19.5v-50A44 44 0 00266 215a23.83 23.83 0 00-6.43-10.35zm45.75 53.88a7.82 7.82 0 01-1.59-5.28v-91.9h-19.49v93.15a26.42 26.42 0 001.28 8.17 19.75 19.75 0 004.07 7.15 20.41 20.41 0 007.14 5.09 25.3 25.3 0 0010.38 1.94h11.07v-16.49h-7.52q-3.75 0-5.34-1.83zM442.4 215a27.1 27.1 0 00-6.71-10.3 22.13 22.13 0 00-8.33-5.1 32 32 0 00-10.88-1.79 33.45 33.45 0 00-12.9 2.3 30.89 30.89 0 00-10.58 7.54 22.71 22.71 0 00-8.91-7.51 29 29 0 00-22.28-.3 27.07 27.07 0 00-9 6v-7.18h-19.02v78.21h19.5v-47.3a16.45 16.45 0 011.21-6.74 12.51 12.51 0 013.08-4.37 12 12 0 014.18-2.42 14 14 0 019.16 0 12.14 12.14 0 014.18 2.42 11.87 11.87 0 013 4.37 17.4 17.4 0 011.14 6.74v47.28h19.5v-47.72a15.7 15.7 0 011.21-6.45 11.73 11.73 0 013.08-4.29 12.8 12.8 0 014.18-2.35 14.43 14.43 0 014.58-.77 14.8 14.8 0 014.61.77 12 12 0 014.22 2.42 11.77 11.77 0 013 4.37 17.4 17.4 0 011.14 6.74v47.28h19.49v-50A36.72 36.72 0 00442.4 215z" fill="#d20824"/><path d="M321.55 46.79v34.09l20.38-15.46V46.79h-20.38zM133.28.74L62.5 36.13l6.23 12.47 67.77-33.88 63.68 29.91L206.11 32 139.37.66a7 7 0 00-6.09.08z" fill="#8ea9c3"/></svg>