<svg xmlns="http://www.w3.org/2000/svg" viewBox="0 0 512 512"><path d="M477.7 127.5c-22.9-39.2-53.9-70.3-93.2-93.2C345.3 11.4 302.5 0 256 0c-46.4 0-89.3 11.4-128.5 34.3s-70.3 53.9-93.2 93.2C11.4 166.7 0 209.6 0 256c0 46.4 11.4 89.3 34.3 128.5s53.9 70.3 93.2 93.2C166.7 500.6 209.6 512 256 512s89.3-11.4 128.5-34.3 70.3-53.9 93.2-93.2C500.6 345.3 512 302.4 512 256c0-46.4-11.4-89.3-34.3-128.5zM298.7 416c0 3.1-1 5.7-3 7.7s-4.5 3-7.7 3h-64c-3.1 0-5.7-1-7.7-3s-3-4.6-3-7.7v-64c0-3.1 1-5.7 3-7.7s4.6-3 7.7-3h64c3.1 0 5.7 1 7.7 3s3 4.6 3 7.7v64zm81.1-197c-2.8 8.2-5.9 14.9-9.3 20.2-3.4 5.2-8.4 10.6-14.8 16s-11.5 9.3-15.3 11.7c-3.8 2.3-9.2 5.5-16.3 9.5-7.3 4.2-13.4 9.7-18.2 16.5-4.8 6.8-7.2 12.3-7.2 16.5 0 3.1-1 5.7-3 7.7s-4.5 3-7.7 3h-64c-3.1 0-5.7-1-7.7-3s-3-4.6-3-7.7v-12c0-14.9 5.8-28.8 17.5-41.8 11.7-13 24.5-22.6 38.5-28.8 10.7-4.9 18.2-9.9 22.7-15s6.7-11.9 6.7-20.3c0-7.3-4.2-13.9-12.5-19.7-8.3-5.8-17.8-8.7-28.5-8.7-11.6 0-21.1 2.7-28.7 8-7.3 5.3-16.9 15.6-28.7 30.7-2 2.7-4.8 4-8.3 4-2.7 0-4.8-.7-6.3-2l-44-33.3c-5.1-4-6-8.7-2.7-14 28.4-47.3 69.7-71 123.7-71 19.3 0 38.2 4.6 56.7 13.7 18.4 9.1 33.8 22 46.2 38.7 12.3 16.7 18.5 34.8 18.5 54.3-.1 9.6-1.5 18.6-4.3 26.8z" fill="#209fb3"/></svg>