<svg id="Calque_1" data-name="Calque 1" xmlns="http://www.w3.org/2000/svg" viewBox="0 0 539.99 106.76"><defs><style>.cls-1{fill:#1a668f}.cls-2{fill:#009dbc}</style></defs><path class="cls-1" d="M0 33.78h22.24l14.96 51.6 14.26-51.6h19.95l15.26 52.03 14.82-52.03h21.52l-22.23 72.99H73.69L61.44 58.73l-12.26 48.04H22.09L0 33.78M127.72 12c0-7 5.13-12 12.4-12s12.4 5 12.4 12-5.13 12.12-12.4 12.12-12.4-5.02-12.4-12.12zm23.09 21.81v73h-21.38v-73zm6.41 72.95l24.95-37.91-23.81-35.07h25.37L198.27 57l14.54-23.24h25.37l-23.8 35.07 25.09 37.91h-26.09l-15.11-25.49-15.11 25.51zm109.9-72.98v73h-21.38v-73z"/><path class="cls-2" d="M298.61 106.76l-24.38-73h11.4l20.53 62.29 18.11-62.29H337l18.67 62.29 20.24-62.29h11.41l-24.52 73h-14.87l-17.25-59.29-17.25 59.29z"/><path class="cls-1" d="M244 12c0-7 5.13-12 12.4-12s12.4 5 12.4 12-5.13 12.12-12.4 12.12S244 19.1 244 12z"/><path class="cls-2" d="M425.85 33.91c20.57 0 35.4 15.09 35.4 35.8 0 1.2 0 2.53-.13 4l-60.65-.13c1.61 14.16 11.76 23.91 25.12 23.91 10.41 0 20.3-6.41 23.37-15.23l10 1.61c-4.14 13.22-18 22.84-33 22.84-20.84 0-35.94-15.63-35.94-37.14.03-20.57 14.98-35.66 35.83-35.66zm24.71 31c-1.86-12.83-11.75-21.64-25.11-21.64-13.09 0-22.84 8.81-24.71 21.5zm54.7 41.85c-11.62 0-21.24-5.47-27-14.29v14.24h-9.88V0h10.15v48c5.75-8.68 15.23-14 26.72-14C525.43 34 540 49.33 540 70.43s-14.71 36.33-34.74 36.33zm-27-36.33c0 15.23 10.83 26.45 25.79 26.45s25.78-10.95 25.78-26.45S519 43.85 504.06 43.85s-25.79 11.22-25.79 26.58z"/></svg>